<svg width="20" height="23" viewBox="0 0 20 23" fill="none" xmlns="http://www.w3.org/2000/svg">
<path d="M16.0908 18.3164H16.3633C18.042 18.3164 19.1582 17.3936 19.1582 15.4248V7.13672H14.2188C13.3311 7.13672 12.7773 6.58301 12.7773 5.69531V0.457031H8.04883C6.21191 0.457031 5.20117 1.45898 5.20117 3.27832V3.69141H6.55469C7.93457 3.69141 8.93652 4.0166 9.91211 4.9834L14.9043 9.97559C15.8535 10.9248 16.0908 12.0146 16.0908 13.3242V18.3164ZM14.4648 5.9502H19.0176C18.9736 5.65137 18.7539 5.37891 18.4199 5.03613L14.8691 1.39746C14.5439 1.06348 14.2627 0.84375 13.9639 0.808594L13.9727 5.44922C13.9727 5.80078 14.1133 5.9502 14.4648 5.9502ZM3.70703 22.834H11.9336C13.8145 22.834 14.7988 21.8408 14.7988 19.9424V13.1309H8.53223C7.41602 13.1309 6.87109 12.5771 6.87109 11.4609V4.97461H3.70703C1.82617 4.97461 0.841797 5.97656 0.841797 7.875V19.9424C0.841797 21.8496 1.82617 22.834 3.70703 22.834ZM8.6377 11.8389H14.6406C14.5352 11.4609 14.3066 11.1006 13.9111 10.6963L9.2793 5.99414C8.875 5.58984 8.53223 5.31738 8.1543 5.20312V11.3555C8.1543 11.6719 8.32129 11.8389 8.6377 11.8389Z" fill="black"/>
</svg>
