<svg width="15" height="17" fill="none" xmlns="http://www.w3.org/2000/svg"><path d="M7.282 8.37a.687.687 0 0 0 .527-.21l3.089-3.112a.754.754 0 0 0 0-1.107L7.808.799a.673.673 0 0 0-.526-.226.741.741 0 0 0-.731.754c0 .203.075.369.203.512l1.8 1.763a7.331 7.331 0 0 0-1.077-.083 6.686 6.686 0 0 0-6.712 6.72A6.725 6.725 0 0 0 7.5 16.98a6.72 6.72 0 0 0 6.735-6.742c0-.452-.316-.776-.768-.776-.437 0-.731.324-.731.776A5.221 5.221 0 0 1 7.5 15.482a5.226 5.226 0 0 1-5.236-5.243c0-2.93 2.313-5.251 5.213-5.251.49 0 .942.038 1.341.105L6.762 7.127a.688.688 0 0 0-.211.505c0 .414.324.738.73.738Z" fill="#fff"/></svg>