<svg width="20" height="17" fill="none" xmlns="http://www.w3.org/2000/svg"><path d="M.83 12.3c0 1.611.852 2.455 2.48 2.455h7.857a4.203 4.203 0 0 1-.565-1.499h-7.3c-.625 0-.972-.324-.972-.987V5.34c0-.664.347-.988.972-.988H13.69c.625 0 .971.324.971.987v2.02a4.459 4.459 0 0 1 1.507-.008V3.13c0-1.612-.851-2.456-2.486-2.456H3.309C1.682.675.831 1.511.831 3.131v9.168Zm6.216-5.35h.444c.272 0 .362-.082.362-.346v-.445c0-.27-.09-.354-.362-.354h-.444c-.271 0-.362.083-.362.354v.445c0 .264.09.346.362.346Zm2.463 0h.445c.264 0 .354-.082.354-.346v-.445c0-.27-.09-.354-.354-.354h-.445c-.27 0-.361.083-.361.354v.445c0 .264.09.346.361.346Zm2.456 0h.445c.271 0 .361-.082.361-.346v-.445c0-.27-.09-.354-.361-.354h-.445c-.263 0-.354.083-.354.354v.445c0 .264.09.346.354.346ZM4.59 9.376h.437c.271 0 .362-.083.362-.354v-.444c0-.264-.09-.347-.362-.347H4.59c-.271 0-.361.083-.361.347v.444c0 .271.09.354.361.354Zm2.456 0h.444c.272 0 .362-.083.362-.354v-.444c0-.264-.09-.347-.362-.347h-.444c-.271 0-.362.083-.362.347v.444c0 .271.09.354.362.354Zm2.463 0h.445c.264 0 .354-.083.354-.354v-.444c0-.264-.09-.347-.354-.347h-.445c-.27 0-.361.083-.361.347v.444c0 .271.09.354.361.354Zm5.914 6.75c2.11 0 3.888-1.763 3.888-3.887 0-2.125-1.756-3.88-3.888-3.88-2.124 0-3.88 1.755-3.88 3.88 0 2.132 1.756 3.887 3.88 3.887Zm-1.793-3.24a.532.532 0 0 1-.535-.534.53.53 0 0 1 .535-.52h1.311V10.07c0-.294.234-.52.527-.52.294 0 .535.226.535.52v2.283a.527.527 0 0 1-.534.535H13.63Zm-9.04-1.091h.437c.271 0 .362-.083.362-.347v-.444c0-.272-.09-.355-.362-.355H4.59c-.271 0-.361.083-.361.355v.444c0 .264.09.346.361.346Zm2.456 0h.444c.272 0 .362-.083.362-.347v-.444c0-.272-.09-.355-.362-.355h-.444c-.271 0-.362.083-.362.355v.444c0 .264.09.346.362.346Zm2.463 0h.445c.264 0 .354-.083.354-.347v-.444c0-.272-.09-.355-.354-.355h-.445c-.27 0-.361.083-.361.355v.444c0 .264.09.346.361.346Z" fill="#000"/></svg>