<svg width="11" height="13" fill="none" xmlns="http://www.w3.org/2000/svg"><path d="M0 11.03C0 12.329.712 13 2.085 13h6.83C10.288 13 11 12.328 11 11.03V1.97C11 .679 10.288 0 8.915 0h-6.83C.712 0 0 .679 0 1.97v9.06Zm3.034-7.896c-.25 0-.43-.174-.43-.402 0-.222.18-.396.43-.396h5.144c.244 0 .423.174.423.396 0 .228-.18.402-.423.402H3.034Zm0 1.79c-.25 0-.43-.174-.43-.403 0-.216.18-.384.43-.384h3.008c.244 0 .423.168.423.384 0 .229-.18.403-.423.403H3.034Zm.102 5.962c-.551 0-.872-.276-.872-.81V6.73c0-.534.32-.804.872-.804H7.87c.57 0 .866.27.866.804v3.345c0 .534-.295.81-.866.81H3.136Z" fill="#000"/></svg>