<svg width="154" height="33" viewBox="0 0 154 33" fill="none" xmlns="http://www.w3.org/2000/svg">
<path fill-rule="evenodd" clip-rule="evenodd" d="M5.371 1.78889H59.081C61.0585 1.78889 62.6616 3.39071 62.6616 5.36667V26.8333C62.6616 28.8093 61.0585 30.4111 59.081 30.4111H5.371C3.39345 30.4111 1.79033 28.8093 1.79033 26.8333V5.36667C1.79033 3.39071 3.39345 1.78889 5.371 1.78889ZM0 5.36667C0 2.40274 2.40468 0 5.371 0H59.081C62.0473 0 64.452 2.40274 64.452 5.36667V26.8333C64.452 29.7973 62.0473 32.2 59.081 32.2H5.371C2.40468 32.2 0 29.7973 0 26.8333V5.36667ZM73.1162 27.665C74.9017 28.5368 77.0018 28.9727 79.4163 28.9727C80.8164 28.9727 82.2874 28.8308 83.8295 28.5469C85.3919 28.2428 86.8934 27.7765 88.334 27.148C89.0051 26.8534 89.8675 26.943 90.407 27.4392C90.539 27.5606 90.6753 27.6765 90.8159 27.7867C91.871 28.5773 93.0783 28.9727 94.4378 28.9727C95.6755 28.9727 96.5987 28.6483 97.2074 27.9995C97.8161 27.3305 98.2219 26.3776 98.4248 25.1409C98.4654 24.9179 98.5669 24.2995 98.7292 23.2858C98.9091 22.2356 99.0559 21.3842 99.1695 20.7313C99.313 19.9067 100.138 19.2749 100.799 19.7885C101.184 20.0724 101.57 20.5488 101.955 21.2179C102.341 21.8666 102.868 22.8803 103.538 24.259C104.37 25.9823 105.242 27.1987 106.155 27.9083C107.089 28.6179 108.215 28.9727 109.534 28.9727C110.893 28.9727 112.07 28.6584 113.064 28.0299C114.059 27.3812 115.043 26.4688 116.017 25.2929C116.402 24.8266 116.595 24.1981 116.595 23.4075C116.595 22.9817 116.514 22.6472 116.351 22.4039C116.209 22.1606 116.006 22.039 115.743 22.039C115.438 22.039 115.164 22.1809 114.921 22.4647C114.028 23.519 113.288 24.2691 112.699 24.7151C112.111 25.1409 111.492 25.3538 110.843 25.3538C110.112 25.3538 109.463 25.0699 108.895 24.5023C108.347 23.9346 107.789 23.0425 107.221 21.8261C106.693 20.6907 106.166 19.8291 105.638 19.2411C105.159 18.7071 105.2 17.3689 105.838 17.041C106.371 16.7676 106.862 16.4568 107.312 16.1088C108.387 15.2776 109.189 14.3247 109.716 13.2501C110.264 12.1553 110.538 11.0403 110.538 9.90492C110.538 8.60738 110.214 7.44162 109.564 6.40764C108.935 5.37366 107.961 4.5627 106.642 3.97475C105.324 3.38681 103.69 3.09283 101.742 3.09283C98.9422 3.09283 96.4668 3.75174 94.316 5.06956C92.1855 6.3671 90.5217 8.25258 89.3246 10.726C88.1477 13.1995 87.5593 16.1392 87.5593 19.5452C87.5593 21.8171 86.497 24.2081 84.2999 24.786C84.2341 24.8033 84.1686 24.8203 84.1034 24.8368C82.7643 25.1612 81.4352 25.3234 80.1164 25.3234C77.4583 25.3234 75.4496 24.6644 74.0901 23.3466C72.7306 22.0085 72.0509 20.1231 72.0509 17.6902C72.0509 15.3586 72.4263 13.3515 73.177 11.6688C73.9278 9.96574 74.9119 8.67834 76.1293 7.80655C77.3467 6.93477 78.625 6.49888 79.9642 6.49888C81.9324 6.49888 82.9164 7.42135 82.9164 9.26629C82.9164 9.63122 82.8556 10.1178 82.7338 10.726C82.6527 11.2126 82.6121 11.5471 82.6121 11.7296C82.6121 12.2364 82.7744 12.6216 83.0991 12.8852C83.4237 13.1488 83.8701 13.2806 84.4382 13.2806C85.2498 13.2806 85.8687 12.9055 86.2948 12.1553C86.7412 11.4052 86.9644 10.4118 86.9644 9.17505C86.9644 7.33011 86.3962 5.85011 85.26 4.73503C84.1237 3.59968 82.4599 3.03201 80.2685 3.03201C77.9148 3.03201 75.7742 3.67064 73.8466 4.94791C71.919 6.2049 70.3871 7.98902 69.2508 10.3003C68.1348 12.6115 67.5769 15.2573 67.5769 18.2376C67.5769 20.3866 68.0537 22.2721 69.0073 23.894C69.961 25.516 71.3306 26.7729 73.1162 27.665ZM9.02866 12.6419C8.17646 12.6419 7.53731 12.4493 7.11121 12.0641C6.68511 11.6586 6.47206 11.1011 6.47206 10.3915C6.47206 9.68191 6.74598 9.09396 7.29382 8.62766C7.86195 8.14108 8.56198 7.89779 9.39388 7.89779C10.1446 7.89779 10.7533 8.08025 11.22 8.44519C11.6867 8.81012 11.92 9.32711 11.92 9.99615C11.92 10.8071 11.6563 11.4559 11.1287 11.9425C10.6012 12.4088 9.90114 12.6419 9.02866 12.6419ZM8.78517 28.9727C7.46629 28.9727 6.5025 28.5064 5.89378 27.5738C5.30536 26.6412 5.01115 25.4044 5.01115 23.8636C5.01115 22.9513 5.12275 21.7855 5.34594 20.3663C5.58943 18.9269 5.89378 17.5888 6.25901 16.3521C6.44162 15.7033 6.68511 15.2573 6.98947 15.014C7.29382 14.7707 7.78079 14.6491 8.45038 14.6491C9.48519 14.6491 10.0026 14.9937 10.0026 15.683C10.0026 16.1899 9.80984 17.3658 9.42432 19.2107C8.93735 21.4409 8.69386 22.9513 8.69386 23.742C8.69386 24.3502 8.77503 24.8165 8.93735 25.1409C9.09967 25.4653 9.37359 25.6275 9.75911 25.6275C10.1243 25.6275 10.5809 25.374 11.1287 24.8672C11.5536 24.4741 11.7571 23.911 11.9045 23.3512C12.1324 22.4855 12.6201 21.6933 13.3676 20.9746C13.4926 20.8544 13.6239 20.7348 13.7615 20.6157C14.6274 19.8663 14.1472 18.088 13.0024 18.1159C12.556 18.1362 12.2111 17.9841 11.9676 17.6598C11.7444 17.3151 11.6328 16.9096 11.6328 16.4433C11.6328 15.9567 11.7444 15.531 11.9676 15.166C12.2111 14.7808 12.5357 14.5882 12.9415 14.5882C13.8749 14.5882 15.1228 14.6592 16.6851 14.8011C17.0098 14.8214 17.5982 14.8619 18.4504 14.9228C19.3229 14.9836 20.0533 15.014 20.6418 15.014C20.8447 15.014 21.2302 14.9329 21.7983 14.7707C21.8998 14.7504 22.0925 14.6997 22.3766 14.6186C22.681 14.5375 22.9346 14.497 23.1375 14.497C23.4621 14.497 23.7259 14.6389 23.9288 14.9228C24.152 15.2066 24.2636 15.6425 24.2636 16.2304C24.2636 16.8792 24.1114 17.3861 23.8071 17.751C23.5027 18.1159 23.0259 18.4403 22.3766 18.7241C20.5302 19.5148 18.9982 20.3663 17.7808 21.2787C16.5634 22.1707 15.9547 23.0628 15.9547 23.9549C15.9547 24.5225 16.2184 24.9888 16.746 25.3538C17.2735 25.7187 18.0547 25.9012 19.0895 25.9012C20.2258 25.9012 21.3722 25.6173 22.5288 25.0497C23.1649 24.7428 23.7654 24.3501 24.3303 23.8715C24.3326 23.8696 24.334 23.8667 24.334 23.8636C24.334 21.228 24.7094 18.7241 25.4601 16.3521C25.6427 15.7641 25.9369 15.3384 26.3427 15.0748C26.7688 14.791 27.3573 14.6491 28.108 14.6491C28.5138 14.6491 28.7979 14.6997 28.9602 14.8011C29.1225 14.9025 29.2037 15.0951 29.2037 15.3789C29.2037 15.7033 29.0515 16.4332 28.7472 17.5685C28.5443 18.3795 28.3819 19.0891 28.2602 19.6973C28.1947 20.0134 28.6603 20.1327 28.7991 19.8412C29.139 19.1273 29.5072 18.4812 29.9037 17.903C30.6747 16.8082 31.4559 15.9973 32.2473 15.4702C33.0589 14.9228 33.8198 14.6491 34.5299 14.6491C35.2401 14.6491 35.7372 14.8112 36.0213 15.1356C36.3256 15.46 36.4778 15.9567 36.4778 16.6258C36.4778 17.2745 36.285 18.4504 35.8995 20.1535C35.8513 20.3702 36.1466 20.4632 36.2433 20.2633C37.075 18.5439 37.9749 17.2402 38.9431 16.3521C40.1808 15.2167 41.3374 14.6491 42.4128 14.6491C43.7316 14.6491 44.3911 15.308 44.3911 16.6258C44.3911 17.4165 44.1679 18.8458 43.7215 20.9137C43.336 22.6776 43.1432 23.8433 43.1432 24.411C43.1432 25.222 43.4374 25.6275 44.0259 25.6275C44.4317 25.6275 44.9085 25.3842 45.4563 24.8976C45.5081 24.8514 45.5614 24.8027 45.6162 24.7514C45.8181 24.5627 45.9171 24.292 45.9171 24.0157C45.9171 22.3937 46.2925 20.8631 47.0433 19.4236C47.794 17.9639 48.7882 16.7981 50.026 15.9263C51.284 15.0343 52.613 14.5882 54.013 14.5882C54.4594 14.5882 54.7536 14.6795 54.8957 14.8619C55.2905 15.2565 55.7314 15.6782 56.2892 15.6577C56.381 15.6543 56.4745 15.6526 56.5696 15.6526C57.0566 15.6526 57.432 15.7743 57.6957 16.0176C57.9595 16.2608 58.0914 16.6055 58.0914 17.0515C58.0914 17.5178 57.99 18.3288 57.787 19.4844C57.5639 20.7211 57.3914 21.9072 57.2696 23.0425C57.1479 24.1576 57.087 25.4146 57.087 26.8135C57.087 27.5839 56.9247 28.1414 56.6001 28.4861C56.2957 28.8105 55.7884 28.9727 55.0783 28.9727C54.3884 28.9727 53.871 28.8105 53.5261 28.4861C53.2014 28.1414 53.0391 27.5941 53.0391 26.8439C53.0441 26.7635 52.9204 26.7362 52.8874 26.8096C52.2401 28.2517 51.2153 28.9727 49.8129 28.9727C48.6564 28.9727 47.7129 28.5165 46.9824 27.6042C46.8722 27.4627 46.6667 27.4309 46.5245 27.5402C46.3433 27.6795 46.1597 27.8123 45.9737 27.9387C44.9795 28.628 43.8432 28.9727 42.5649 28.9727C41.5301 28.9727 40.749 28.6787 40.2214 28.0908C39.6938 27.4825 39.4301 26.6108 39.4301 25.4754C39.4301 24.9077 39.5721 23.894 39.8562 22.4343C40.1199 21.157 40.2518 20.2751 40.2518 19.7885C40.2518 19.4641 40.1402 19.302 39.917 19.302C39.6533 19.302 39.2779 19.6466 38.7909 20.3359C38.304 21.005 37.817 21.897 37.33 23.0121C36.843 24.1272 36.4474 25.3031 36.143 26.5398C35.9198 27.513 35.656 28.1617 35.3517 28.4861C35.0676 28.8105 34.6009 28.9727 33.9517 28.9727C33.2821 28.9727 32.7748 28.6584 32.4299 28.0299C32.1052 27.3812 31.9429 26.6006 31.9429 25.6883C31.9429 24.9179 32.0444 23.8028 32.2473 22.3431C32.4096 21.0455 32.4907 20.194 32.4907 19.7885C32.4907 19.4641 32.3791 19.302 32.1559 19.302C31.8516 19.302 31.4661 19.6669 30.9994 20.3968C30.5327 21.1266 30.0762 22.0592 29.6298 23.1946C29.2037 24.3299 28.8588 25.445 28.595 26.5398C28.3718 27.4927 28.108 28.1414 27.8036 28.4861C27.5196 28.8105 27.063 28.9727 26.434 28.9727C25.663 28.9727 25.1152 28.5672 24.7905 27.7562C24.7182 27.5635 24.483 27.4786 24.3109 27.5914C23.9666 27.817 23.6059 28.024 23.2288 28.2124C21.8288 28.922 20.2461 29.2768 18.4808 29.2768C17.1011 29.2768 15.9039 29.0741 14.8894 28.6686C13.5187 28.0933 11.8061 28.0573 10.4321 28.6248C9.87068 28.8567 9.32169 28.9727 8.78517 28.9727ZM50.9999 25.9012C51.568 25.9012 52.0854 25.5058 52.5521 24.7151C53.0188 23.9244 53.4348 22.5154 53.8 20.488L53.9039 19.936C54.1481 18.6389 53.0535 17.5149 52.0651 18.3896C51.355 18.9978 50.7868 19.8088 50.3607 20.8225C49.9347 21.8362 49.7216 22.9107 49.7216 24.0461C49.7216 24.6543 49.8332 25.1206 50.0564 25.445C50.2999 25.7491 50.6144 25.9012 50.9999 25.9012ZM94.9524 20.7772C95.0965 19.9769 94.3117 19.3855 93.7986 18.7546C93.5551 18.4302 93.4334 18.0652 93.4334 17.6598C93.4334 17.1732 93.5856 16.788 93.8899 16.5041C94.2146 16.2203 94.5798 16.0784 94.9856 16.0784C95.4243 16.0784 95.7982 15.7603 95.8704 15.3276C96.1489 13.6567 96.4119 12.1938 96.6596 10.9389C96.9233 9.62108 97.7755 8.96218 99.2162 8.96218C100.373 8.96218 100.951 9.47917 100.951 10.5131C100.951 10.7362 100.941 10.9085 100.921 11.0301L100.561 13.0185C100.279 14.5793 101.584 16.022 102.99 15.2877C103.903 14.8214 104.624 14.1726 105.151 13.3414C105.699 12.5101 105.973 11.5674 105.973 10.5131C105.973 9.23588 105.537 8.23231 104.664 7.50244C103.792 6.77258 102.513 6.40764 100.829 6.40764C98.8408 6.40764 97.0958 6.90436 95.5943 7.89779C94.1131 8.87094 92.9566 10.3307 92.1246 12.277C91.2927 14.203 90.8768 16.5548 90.8768 19.3324C90.8768 20.6299 91.0087 21.745 91.2724 22.6776C91.5362 23.6102 91.8609 24.3097 92.2464 24.776C92.6319 25.2423 92.9971 25.4754 93.3421 25.4754C93.6059 25.4754 93.8189 25.3436 93.9812 25.0801C94.1638 24.8165 94.3059 24.3907 94.4073 23.8028L94.9524 20.7772ZM117.504 28.4861C117.829 28.8105 118.367 28.9727 119.118 28.9727C119.909 28.9727 120.436 28.7699 120.7 28.3645C120.984 27.959 121.197 27.2393 121.339 26.2053C122.009 21.3192 122.841 17.4469 123.835 14.5882C124.85 11.7093 125.884 9.71232 126.939 8.59724C127.995 7.4619 129.019 6.89422 130.013 6.89422C130.602 6.89422 131.038 7.07669 131.322 7.44162C131.627 7.80655 131.779 8.37423 131.779 9.14464C131.779 10.5638 131.312 13.7266 130.379 18.6329C130.034 20.4576 129.75 22.0491 129.527 23.4075C129.303 24.7455 129.192 25.8302 129.192 26.6614C129.192 27.5535 129.344 28.1617 129.648 28.4861C129.973 28.8105 130.48 28.9727 131.17 28.9727C131.961 28.9727 132.529 28.7699 132.874 28.3645C133.24 27.9387 133.493 27.1176 133.635 25.9012C134.224 21.3598 134.985 17.6699 135.918 14.8315C136.872 11.9932 137.866 9.96574 138.901 8.7493C139.956 7.51258 140.96 6.89422 141.914 6.89422C142.421 6.89422 142.807 7.07669 143.07 7.44162C143.354 7.78628 143.496 8.31341 143.496 9.023C143.496 9.42848 143.466 9.8441 143.405 10.2699C143.344 10.6753 143.263 11.1112 143.162 11.5775C143.06 12.0438 142.989 12.3682 142.949 12.5507L141.731 18.1159C141.244 20.3866 141.001 22.1201 141.001 23.3162C141.001 25.0395 141.488 26.4182 142.462 27.4521C143.436 28.4658 144.785 28.9727 146.51 28.9727C147.646 28.9727 148.731 28.6787 149.766 28.0908C150.801 27.5028 151.846 26.5702 152.901 25.2929C153.287 24.8266 153.479 24.1981 153.479 23.4075C153.479 22.9817 153.398 22.6472 153.236 22.4039C153.094 22.1606 152.891 22.039 152.627 22.039C152.323 22.039 152.049 22.1809 151.805 22.4647C150.933 23.4987 150.172 24.2387 149.523 24.6847C148.894 25.1307 148.244 25.3538 147.575 25.3538C146.865 25.3538 146.307 25.1409 145.901 24.7151C145.515 24.2894 145.323 23.6507 145.323 22.7992C145.323 22.0694 145.424 21.1976 145.627 20.1839L147.484 11.4863C147.747 10.209 147.879 9.12437 147.879 8.23231C147.879 6.59011 147.494 5.31284 146.723 4.40051C145.972 3.48818 144.886 3.03201 143.466 3.03201C141.701 3.03201 140.138 3.64023 138.779 4.85668C137.83 5.70583 136.965 6.94028 136.184 8.56002C136.073 8.79108 135.492 8.64088 135.492 8.38437C135.492 6.68134 135.106 5.36353 134.335 4.43092C133.585 3.49831 132.55 3.03201 131.231 3.03201C129.506 3.03201 127.924 3.69092 126.483 5.00873C125.042 6.30627 123.744 8.60738 122.587 11.9121C122.628 11.7296 122.689 11.4052 122.77 10.9389C122.851 10.4726 122.942 9.87451 123.044 9.14464C123.145 8.3945 123.196 7.74573 123.196 7.19833C123.196 5.83997 122.892 4.80599 122.283 4.0964C121.694 3.38681 120.842 3.03201 119.726 3.03201C118.529 3.03201 117.332 3.40708 116.135 4.15722C114.938 4.88709 113.852 5.9312 112.878 7.28957C112.574 7.71532 112.351 8.10053 112.209 8.44519C112.087 8.76957 112.026 9.09396 112.026 9.41834C112.026 9.763 112.127 10.0772 112.33 10.3611C112.554 10.6247 112.807 10.7564 113.091 10.7564C113.436 10.7564 113.751 10.5638 114.035 10.1786C114.928 9.00273 115.739 8.15121 116.47 7.62409C117.22 7.07669 117.86 6.80299 118.387 6.80299C119.057 6.80299 119.391 7.25916 119.391 8.17149C119.391 9.14464 119.3 10.3611 119.118 11.8208C118.813 14.1523 118.397 16.9096 117.87 20.0926C117.565 21.8159 117.342 23.1743 117.2 24.1677C117.078 25.1409 117.017 25.9417 117.017 26.5702C117.017 27.5028 117.18 28.1414 117.504 28.4861Z" fill="#0D0D0D"/>
</svg>
