<svg width="12" height="10" viewBox="0 0 12 10" fill="none" xmlns="http://www.w3.org/2000/svg">
<path d="M2.66455 9.56006C3.20068 9.56006 4.47949 9.00195 5.2793 8.43945C5.36279 8.37793 5.43311 8.35596 5.50342 8.35596C5.56055 8.36035 5.61328 8.36475 5.66162 8.36475C8.83008 8.36035 11.0977 6.6333 11.0977 4.26025C11.0977 1.98828 8.82568 0.160156 5.99561 0.160156C3.16553 0.160156 0.897949 1.98828 0.897949 4.26025C0.897949 5.67529 1.75049 6.94092 3.19189 7.71875C3.271 7.76709 3.29297 7.83301 3.25342 7.91211C2.99854 8.33838 2.57227 8.81299 2.39648 9.03711C2.19873 9.2876 2.31299 9.56006 2.66455 9.56006Z" fill="black"/>
</svg>
