<svg width="18" height="18" viewBox="0 0 18 18" fill="none" xmlns="http://www.w3.org/2000/svg">
<path d="M6.32729 14.4508H11.6779C12.452 14.4508 12.904 14.0384 12.9379 13.27L13.2939 5.10554H14.0736C14.3617 5.10554 14.5821 4.87953 14.5821 4.59703C14.5821 4.31452 14.3561 4.09982 14.0736 4.09982H11.6214V3.2523C11.6214 2.34828 11.0395 1.81152 10.0677 1.81152H7.92062C6.9488 1.81152 6.36684 2.34828 6.36684 3.2523V4.09982H3.92599C3.64348 4.09982 3.41748 4.32017 3.41748 4.59703C3.41748 4.88518 3.64348 5.10554 3.92599 5.10554H4.71136L5.07296 13.27C5.10121 14.0384 5.55322 14.4508 6.32729 14.4508ZM7.54206 3.30315C7.54206 3.0489 7.71722 2.88504 7.99972 2.88504H9.99421C10.2767 2.88504 10.4519 3.0489 10.4519 3.30315V4.09982H7.54206V3.30315ZM7.18611 12.7162C6.9601 12.7162 6.8019 12.5693 6.79625 12.3433L6.62674 6.34291C6.62109 6.11691 6.7793 5.96436 7.0166 5.96436C7.24261 5.96436 7.40081 6.11126 7.40646 6.33726L7.57596 12.3377C7.58726 12.5637 7.42906 12.7162 7.18611 12.7162ZM8.99979 12.7162C8.76249 12.7162 8.60428 12.5693 8.60428 12.3433V6.33726C8.60428 6.11691 8.76249 5.96436 8.99979 5.96436C9.2371 5.96436 9.40095 6.11691 9.40095 6.33726V12.3433C9.40095 12.5693 9.2371 12.7162 8.99979 12.7162ZM10.8135 12.7219C10.5705 12.7219 10.4123 12.5637 10.4236 12.3433L10.5931 6.33726C10.5988 6.11126 10.757 5.96436 10.983 5.96436C11.2203 5.96436 11.3785 6.11691 11.3728 6.34291L11.2033 12.3433C11.1977 12.5693 11.0395 12.7219 10.8135 12.7219Z" fill="#FF2121"/>
</svg>
