<svg width="{18}" height="{18}" viewBox="0 0 18 18" fill="none" xmlns="http://www.w3.org/2000/svg">
  <path d="M8.99456 14.62C12.1982 14.62 14.8424 11.9757 14.8424 8.77776C14.8424 5.5798 12.1925 2.93555 8.98891 2.93555C5.79095 2.93555 3.15234 5.5798 3.15234 8.77776C3.15234 11.9757 5.7966 14.62 8.99456 14.62ZM8.98891 12.0774C8.83636 12.0774 8.72335 11.9644 8.72335 11.8062V11.4051C7.88149 11.3373 7.25997 10.8966 7.09047 10.275C7.06787 10.2016 7.05657 10.1338 7.05657 10.066C7.05657 9.82868 7.22042 9.66483 7.46338 9.66483C7.66678 9.66483 7.80239 9.77218 7.88714 9.98124C7.97754 10.3259 8.25439 10.5801 8.72335 10.6479V9.11112L8.62165 9.08852C7.64418 8.86251 7.13567 8.4105 7.13567 7.64774C7.13567 6.82282 7.79674 6.25781 8.72335 6.17306V5.77755C8.72335 5.6137 8.83636 5.50635 8.98891 5.50635C9.14146 5.50635 9.26011 5.61935 9.26011 5.77755V6.17306C10.0511 6.25216 10.6387 6.68722 10.7969 7.29178C10.8139 7.35958 10.8308 7.42739 10.8308 7.49519C10.8308 7.72119 10.667 7.88504 10.4297 7.88504C10.2206 7.88504 10.085 7.76639 10.0003 7.57429C9.88728 7.22963 9.63302 7.00928 9.26011 6.94148V8.39355L9.39007 8.42181C10.4127 8.61391 10.9269 9.08287 10.9269 9.88518C10.9269 10.7779 10.215 11.326 9.26011 11.4107V11.8062C9.26011 11.9644 9.14146 12.0774 8.98891 12.0774ZM8.72335 8.25795V6.93583C8.27699 7.00928 8.00579 7.27483 8.00579 7.59124C8.00579 7.90765 8.21484 8.11105 8.6838 8.24665L8.72335 8.25795ZM9.26011 9.24107V10.6479C9.79688 10.5858 10.0624 10.3146 10.0624 9.94734C10.0624 9.61963 9.87598 9.40492 9.36747 9.26932L9.26011 9.24107Z" fill="white" />
</svg>
