<svg width="13" height="13" viewBox="0 0 13 13" fill="none" xmlns="http://www.w3.org/2000/svg">
<path d="M11.6107 2.25193L12.0345 1.80557C12.2492 1.57957 12.2661 1.26881 12.0514 1.0541L11.9045 0.901552C11.7124 0.709448 11.3903 0.737699 11.1813 0.946753L10.7406 1.37616L11.6107 2.25193ZM4.92097 8.26365L6.07924 7.77774L11.1982 2.65874L10.3281 1.79427L5.20912 6.91892L4.70061 8.03764C4.64411 8.16759 4.79102 8.3145 4.92097 8.26365ZM2.77393 12.0549H9.35631C10.4411 12.0549 11.0796 11.4221 11.0796 10.2129V4.24642L9.94957 5.37079V10.1112C9.94957 10.6536 9.66141 10.9248 9.28285 10.9248H2.84738C2.32757 10.9248 2.04506 10.6536 2.04506 10.1112V3.83396C2.04506 3.29155 2.32757 3.02034 2.84738 3.02034H7.64432L8.76869 1.89032H2.77393C1.5535 1.89032 0.915039 2.52313 0.915039 3.73226V10.2129C0.915039 11.4221 1.5535 12.0549 2.77393 12.0549Z" fill="black"/>
</svg>
