<svg width="15" height="12" fill="none" xmlns="http://www.w3.org/2000/svg"><path d="M8.576 11.038c.305 0 .548-.124.848-.401l4.475-4.198a.914.914 0 0 0 .305-.661.884.884 0 0 0-.305-.661L9.424.94c-.328-.3-.537-.423-.842-.423-.446 0-.774.35-.774.79v2.063h-3.47c-1.056 0-1.508.458-1.508 1.497V5.93H1.553c-1 0-1.474.464-1.474 1.441v2.181c0 .983.463 1.435 1.474 1.435h3.419c1.028 0 1.474-.446 1.474-1.463v-1.17h1.362v1.921c0 .441.328.763.768.763ZM5.65 9.586l-2.108-.887c-.554-.243-.79-.565-.813-1.068-.006-.113.124-.136.169-.023.164.447.576.746 1.271.746h1.554v1.198c0 .04-.034.051-.073.034Z" fill="#000"/></svg>