<svg width="12" height="12" viewBox="0 0 12 12" fill="none" xmlns="http://www.w3.org/2000/svg">
<g clip-path="url(#clip0_3461_15799)">
<path d="M0 4.7998V9.5998C0 9.91806 0.126428 10.2233 0.351472 10.4483C0.576516 10.6734 0.88174 10.7998 1.2 10.7998H10.8C11.1183 10.7998 11.4235 10.6734 11.6485 10.4483C11.8736 10.2233 12 9.91806 12 9.5998V4.7998L6 7.1998L0 4.7998Z" fill="black"/>
<path d="M1.2 1.2002C0.88174 1.2002 0.576516 1.32662 0.351472 1.55167C0.126428 1.77671 0 2.08194 0 2.4002L0 3.6002L6 6.0002L12 3.6002V2.4002C12 2.08194 11.8736 1.77671 11.6485 1.55167C11.4235 1.32662 11.1183 1.2002 10.8 1.2002H1.2Z" fill="black"/>
</g>
<defs>
<clipPath id="clip0_3461_15799">
<rect width="12" height="12" fill="white"/>
</clipPath>
</defs>
</svg>
