<svg width="20" height="21" viewBox="0 0 20 21" fill="none" xmlns="http://www.w3.org/2000/svg">
<path d="M9.99379 16.3245C13.5534 16.3245 16.4914 13.3864 16.4914 9.83315C16.4914 6.27985 13.5471 3.3418 9.98751 3.3418C6.43422 3.3418 3.50244 6.27985 3.50244 9.83315C3.50244 13.3864 6.4405 16.3245 9.99379 16.3245ZM9.98751 13.4994C9.81801 13.4994 9.69245 13.3739 9.69245 13.1981V12.7524C8.75704 12.677 8.06648 12.1874 7.87814 11.4968C7.85303 11.4152 7.84047 11.3398 7.84047 11.2645C7.84047 11.0008 8.02253 10.8188 8.29248 10.8188C8.51848 10.8188 8.66915 10.9381 8.76332 11.1703C8.86377 11.5533 9.17139 11.8358 9.69245 11.9111V10.2035L9.57945 10.1784C8.49337 9.92732 7.92836 9.42508 7.92836 8.57757C7.92836 7.66099 8.66288 7.0332 9.69245 6.93903V6.49958C9.69245 6.31752 9.81801 6.19824 9.98751 6.19824C10.157 6.19824 10.2889 6.3238 10.2889 6.49958V6.93903C11.1678 7.02693 11.8207 7.51032 11.9964 8.18206C12.0153 8.25739 12.0341 8.33273 12.0341 8.40806C12.0341 8.65918 11.852 8.84124 11.5884 8.84124C11.3561 8.84124 11.2054 8.7094 11.1113 8.49595C10.9857 8.113 10.7032 7.86816 10.2889 7.79283V9.40625L10.4332 9.43764C11.5695 9.65109 12.1408 10.1722 12.1408 11.0636C12.1408 12.0555 11.3498 12.6645 10.2889 12.7586V13.1981C10.2889 13.3739 10.157 13.4994 9.98751 13.4994ZM9.69245 9.25558V7.78655C9.1965 7.86816 8.89516 8.16323 8.89516 8.51479C8.89516 8.86635 9.12744 9.09235 9.64851 9.24302L9.69245 9.25558ZM10.2889 10.3479V11.9111C10.8853 11.8421 11.1803 11.5407 11.1803 11.1327C11.1803 10.7686 10.9731 10.53 10.4081 10.3793L10.2889 10.3479Z" fill="black"/>
</svg>
