<svg width="24" height="24" fill="none" xmlns="http://www.w3.org/2000/svg"><path d="M12 19.5c4.264 0 7.79-3.525 7.79-7.789 0-4.271-3.534-7.797-7.798-7.797-3.947 0-7.27 3.029-7.729 6.893a4.798 4.798 0 0 1 1.047-.113c2.328 0 4.294 1.635 4.799 3.76a8.127 8.127 0 0 1 1.883-.22c2.155 0 3.812.792 4.603 1.688a6.22 6.22 0 0 1-4.603 2.034 6.003 6.003 0 0 1-2.147-.406c-.128.406-.437.911-.828 1.34.926.392 1.928.61 2.983.61Zm-.008-6.568c-1.461-.015-2.584-1.236-2.591-2.848-.015-1.522 1.137-2.795 2.591-2.795 1.447 0 2.592 1.273 2.592 2.795 0 1.612-1.13 2.863-2.592 2.848ZM5.31 19.53c2.11 0 3.88-1.763 3.88-3.887 0-2.125-1.748-3.88-3.88-3.88-2.124 0-3.88 1.755-3.88 3.88 0 2.132 1.756 3.887 3.88 3.887Zm-2.463-3.887c0-.31.21-.513.52-.513H4.79v-1.423c0-.31.204-.52.52-.52.317 0 .52.21.52.52v1.423h1.424c.309 0 .52.204.52.513 0 .316-.211.52-.52.52H5.83v1.43c0 .31-.203.52-.52.52-.316 0-.52-.21-.52-.52v-1.43H3.367c-.31 0-.513-.204-.52-.52Z" fill="#000"/></svg>