<svg width="24" height="24" fill="none" xmlns="http://www.w3.org/2000/svg"><path d="M12 19.493c4.271 0 7.79-3.525 7.79-7.79 0-4.263-3.534-7.789-7.798-7.789-3.962 0-7.277 3.036-7.721 6.886a4.45 4.45 0 0 1 1.582-.053 6.177 6.177 0 0 1 6.14-5.274 6.221 6.221 0 0 1 6.245 6.23 6.15 6.15 0 0 1-1.68 4.25c-.776-.86-2.419-1.643-4.566-1.643a7.99 7.99 0 0 0-1.86.211c.09.362.135.738.135 1.123 0 1.228-.474 2.365-1.243 3.247.92.384 1.929.602 2.976.602Zm-.008-6.418c1.462.007 2.6-1.236 2.6-2.848 0-1.522-1.146-2.795-2.6-2.795-1.446 0-2.606 1.273-2.591 2.795.007 1.612 1.13 2.833 2.591 2.848ZM5.31 19.53c2.11 0 3.88-1.763 3.88-3.887 0-2.125-1.748-3.88-3.88-3.88-2.124 0-3.88 1.755-3.88 3.88 0 2.132 1.756 3.887 3.88 3.887Zm-.452-1.597a.582.582 0 0 1-.43-.18l-1.416-1.545a.55.55 0 0 1-.135-.362.53.53 0 0 1 .542-.542c.181 0 .317.068.407.173l1.002 1.092 1.914-2.659a.567.567 0 0 1 .46-.233c.293 0 .541.233.541.534a.56.56 0 0 1-.113.317L5.31 17.73c-.09.128-.264.204-.452.204Z" fill="#fff"/></svg>