<svg width="19" height="14" viewBox="0 0 19 14" fill="none" xmlns="http://www.w3.org/2000/svg">
<path d="M2 6V11.6C2 11.9713 2.1475 12.3274 2.41005 12.5899C2.6726 12.8525 3.0287 13 3.4 13H14.6C14.9713 13 15.3274 12.8525 15.5899 12.5899C15.8525 12.3274 16 11.9713 16 11.6V6L9 8.8L2 6Z" fill="black"/>
<path d="M3.4 2C3.0287 2 2.6726 2.1317 2.41005 2.36612C2.1475 2.60054 2 2.91848 2 3.25L2 4.5L9 7L16 4.5V3.25C16 2.91848 15.8525 2.60054 15.5899 2.36612C15.3274 2.1317 14.9713 2 14.6 2H3.4Z" fill="black"/>
</svg>
