<svg width="12" height="14" fill="none" xmlns="http://www.w3.org/2000/svg"><path d="M3.327 13.45h5.35c.775 0 1.227-.412 1.26-1.18l.357-8.165h.78a.503.503 0 0 0 .508-.508.497.497 0 0 0-.508-.498H8.62v-.847C8.621 1.348 8.04.81 7.068.81H4.92c-.972 0-1.554.537-1.554 1.44V3.1H.926a.503.503 0 1 0 0 1.006h.785l.362 8.165c.028.768.48 1.18 1.254 1.18ZM4.542 2.303c0-.255.175-.418.458-.418h1.994c.283 0 .458.163.458.418v.796h-2.91v-.796Zm-.356 9.413c-.226 0-.384-.147-.39-.373l-.17-6c-.005-.227.153-.38.39-.38.227 0 .385.148.39.374l.17 6c.011.226-.147.379-.39.379Zm1.814 0c-.238 0-.396-.147-.396-.373V5.337c0-.22.158-.373.396-.373.237 0 .4.152.4.373v6.006c0 .226-.163.373-.4.373Zm1.813.005c-.242 0-.4-.158-.39-.378l.17-6.006c.006-.226.164-.373.39-.373.237 0 .395.152.39.378l-.17 6a.371.371 0 0 1-.39.38Z" fill="#FF2121"/></svg>
