<svg width="12" height="14" viewBox="0 0 12 14" fill="none" xmlns="http://www.w3.org/2000/svg">
<path d="M10.1926 2.093C9.89179 1.79218 9.48377 1.62318 9.05834 1.62318C8.6329 1.62318 8.22488 1.79218 7.92404 2.093L2.25229 7.76417C1.76001 8.25645 1.48344 8.92414 1.48344 9.62033C1.48344 10.3165 1.76001 10.9842 2.25229 11.4765C2.74458 11.9688 3.41226 12.2454 4.10846 12.2454C4.80466 12.2454 5.47234 11.9688 5.96463 11.4765L11.0175 6.42367C11.0999 6.34393 11.2104 6.29978 11.3251 6.30073C11.4399 6.30167 11.5496 6.34763 11.6308 6.42871C11.7119 6.50978 11.758 6.61949 11.759 6.7342C11.7601 6.84892 11.716 6.95945 11.6364 7.042L6.58354 12.0954C5.92536 12.743 5.03797 13.1042 4.11465 13.1004C3.19134 13.0967 2.30692 12.7282 1.65403 12.0753C1.00115 11.4225 0.632695 10.538 0.628935 9.61472C0.625176 8.69141 0.986413 7.80402 1.63396 7.14583L7.30571 1.47408C7.61203 1.16036 7.99612 0.933552 8.41877 0.816822C8.84141 0.700092 9.28747 0.697624 9.71138 0.809668C10.1353 0.921353 10.5221 1.14354 10.8321 1.45355C11.1421 1.76357 11.3643 2.15029 11.476 2.57425C11.588 2.99816 11.5855 3.44422 11.4688 3.86686C11.3521 4.28951 11.1253 4.6736 10.8115 4.97992L5.44896 10.3425C5.16196 10.6313 4.77227 10.7947 4.36513 10.7969C4.16384 10.7959 3.96472 10.7553 3.77915 10.6773C3.59358 10.5994 3.4252 10.4856 3.28363 10.3425C3.16929 10.2282 3.08646 10.0683 3.03279 9.919C2.96882 9.74201 2.93568 9.55536 2.93479 9.36717C2.93479 8.95883 3.10046 8.56625 3.38688 8.27983L8.13054 3.53675C8.18402 3.47916 8.25204 3.43706 8.32743 3.41489C8.40283 3.39271 8.48281 3.39128 8.55895 3.41075C8.63509 3.43022 8.70456 3.46986 8.76006 3.52551C8.81556 3.58115 8.85502 3.65073 8.87429 3.72692C8.89379 3.80297 8.89243 3.88287 8.87036 3.95822C8.84829 4.03356 8.80632 4.10157 8.74888 4.15508L4.00579 8.89875C3.8815 9.02311 3.8111 9.19135 3.80979 9.36717C3.81154 9.48617 3.84071 9.60342 3.89496 9.70959C3.90079 9.72009 3.90546 9.72592 3.90663 9.72825C4.03496 9.85367 4.19888 9.92192 4.36513 9.92192C4.53429 9.92192 4.70346 9.85133 4.83063 9.72359L10.1926 4.36158C10.3417 4.21261 10.4599 4.03574 10.5406 3.84106C10.6212 3.64639 10.6627 3.43773 10.6627 3.227C10.6627 3.01628 10.6212 2.80762 10.5406 2.61294C10.4599 2.41826 10.3417 2.24139 10.1926 2.09242V2.093Z" fill="#999999"/>
</svg>
